<svg width="100" height="96" viewBox="0 0 100 96" fill="none" xmlns="http://www.w3.org/2000/svg">
<path d="M100 48.042C100 42.1441 98.8373 36.517 96.8034 31.2948C96.2614 48.473 78.0582 61.7776 67.3699 70.5822H94.1255C97.867 63.8571 100 56.1913 100 48.042ZM80.6574 10.2138C72.1895 3.88482 61.5683 0.0839437 49.9971 0.0839437C22.3848 0.0839437 0 21.5553 0 48.042C0 74.5287 22.3848 96 49.9971 96C62.6464 96 74.1623 91.4652 82.9623 84.0382H46.7626L46.6548 73.8384C68.4655 55.6525 81.8375 43.3528 81.8375 31.4725C81.8375 27.0571 80.0833 21.4854 72.1954 21.4854C65.9479 21.4854 59.919 24.9571 61.0117 39.4616H48.3012C45.1192 22.6445 54.6564 9.2876 72.851 9.2876C75.6658 9.2876 78.2796 9.61381 80.6574 10.2138" fill="#AFCA0B"/>
</svg>
